<svg id="Warstwa_1" data-name="Warstwa 1" xmlns="http://www.w3.org/2000/svg" viewBox="0 0 360 360"><defs><style>.cls-1{fill:#fff;}</style></defs><title>sizeIcon</title><path class="cls-1" d="M359.2,176.5a5.5,5.5,0,0,0-1.3-1.3L290,118.9a8.7,8.7,0,0,0-10.8,0,5.6,5.6,0,0,0-1.1,7.8l1.1,1.1,54.9,45.6H186.5V151.6c0-.1,0-.1,0-.2V25.8L232,80.7a5.7,5.7,0,0,0,8,1l1-1a8.7,8.7,0,0,0,0-10.8L184.7,2a5.5,5.5,0,0,0-8.9,0L119.4,69.9a8.7,8.7,0,0,0,0,10.8,5.6,5.6,0,0,0,7.8,1.1l1.1-1.1,45.6-54.9V150.9a7.1,7.1,0,0,0,0,1.4v21.1H26.4l54.9-45.5a5.7,5.7,0,0,0,1-8l-1-1a8.7,8.7,0,0,0-10.8,0L2.5,175.2a5.5,5.5,0,0,0,0,8.9l67.9,56.3a8.7,8.7,0,0,0,10.8,0,5.6,5.6,0,0,0,1.1-7.8l-1.1-1.1L26.4,186H173.9v21.7c0,.1,0,.1,0,.2V333.5l-45.5-54.9a5.7,5.7,0,0,0-8-1l-1,1a8.7,8.7,0,0,0,0,10.8l56.3,67.9a5.5,5.5,0,0,0,8.9,0L241,289.4a8.7,8.7,0,0,0,0-10.8,5.6,5.6,0,0,0-7.8-1.1l-1.1,1.1-45.6,54.9V208.4a7.1,7.1,0,0,0,0-1.4V186H334.1l-54.9,45.5a5.7,5.7,0,0,0-1,8l1,1a8.7,8.7,0,0,0,10.8,0l67.9-56.3A5.5,5.5,0,0,0,359.2,176.5Z" transform="translate(-0.2 0.3)"/></svg>